<svg width="78" height="68" viewBox="0 0 78 68" fill="none" xmlns="http://www.w3.org/2000/svg">
<path d="M18.088 34.0075C18.088 24.0155 25.1328 15.6395 34.516 13.5814C27.1761 14.516 19.501 17.6981 12.0643 22.9268C5.36086 27.6401 1.22143 32.3123 1.04857 32.5089C0.298914 33.3612 0.298914 34.6375 1.04857 35.4898C1.22143 35.6864 5.36086 40.3586 12.0644 45.0718C19.4405 50.258 27.0511 53.4308 34.3366 54.3943C25.043 52.2696 18.088 43.9356 18.088 34.0075Z" fill="#C1EF00"/>
<path d="M22.6025 34.0092C22.6025 43.0513 29.9587 50.4075 39.0008 50.4075C48.0428 50.4075 55.399 43.0513 55.399 34.0092C55.399 24.9672 48.0428 17.611 39.0008 17.611C29.9587 17.611 22.6025 24.9672 22.6025 34.0092ZM42.0096 27.2312H48.0273C49.2736 27.2312 50.284 28.2415 50.284 29.4878V35.5055C50.284 36.7518 49.2736 37.7622 48.0273 37.7622C46.7811 37.7622 45.7707 36.7518 45.7707 35.5055V34.9358L40.5964 40.1101C39.7151 40.9913 38.2865 40.9914 37.405 40.1101L34.4836 37.1888L31.6046 40.0678C30.7234 40.949 29.2945 40.9493 28.4132 40.0678C27.5319 39.1867 27.5319 37.7579 28.4132 36.8765L32.8879 32.4017C33.7688 31.5204 35.1988 31.521 36.0792 32.4017L39.0008 35.323L42.5794 31.7444H42.0096C40.7634 31.7444 39.753 30.7341 39.753 29.4878C39.753 28.2415 40.7634 27.2312 42.0096 27.2312Z" fill="#C1EF00"/>
<path d="M76.951 32.5088C76.7782 32.3121 72.6387 27.64 65.9352 22.9268C58.4986 17.698 50.8235 14.516 43.4834 13.5814C52.8667 15.6393 59.9114 24.0154 59.9114 34.0073C59.9114 43.9355 52.9565 52.2694 43.663 54.3941C50.9485 53.4308 58.5593 50.2578 65.9352 45.0716C72.6387 40.3584 76.778 35.6861 76.951 35.4896C77.7007 34.6374 77.7007 33.361 76.951 32.5088Z" fill="#C1EF00"/>
<path d="M56.7513 55.7178C56.1281 54.6384 54.748 54.2684 53.6688 54.8919C52.5893 55.515 52.2196 56.895 52.8428 57.9744L55.1747 62.0134C55.7998 63.0961 57.1812 63.4608 58.2573 62.8393C59.3367 62.2162 59.7065 60.8361 59.0832 59.7567L56.7513 55.7178Z" fill="#C1EF00"/>
<path d="M38.9988 9.02656C40.2451 9.02656 41.2555 8.01619 41.2555 6.76992V2.25664C41.2555 1.01037 40.2451 0 38.9988 0C37.7526 0 36.7422 1.01037 36.7422 2.25664V6.76992C36.7422 8.01619 37.7526 9.02656 38.9988 9.02656Z" fill="#C1EF00"/>
<path d="M53.744 12.9767C54.8186 13.5973 56.2007 13.235 56.8265 12.1508L59.0832 8.24228C59.7065 7.16301 59.3367 5.7827 58.2572 5.15971C57.178 4.53628 55.7977 4.90607 55.1747 5.98564L52.918 9.89414C52.2948 10.9734 52.6645 12.3536 53.744 12.9767Z" fill="#C1EF00"/>
<path d="M38.9988 58.823C37.7526 58.823 36.7422 59.8334 36.7422 61.0796V65.7434C36.7422 66.9896 37.7526 68 38.9988 68C40.2451 68 41.2555 66.9896 41.2555 65.7434V61.0796C41.2555 59.8334 40.2451 58.823 38.9988 58.823Z" fill="#C1EF00"/>
<path d="M21.1727 12.1507C21.7978 13.2335 23.1792 13.5981 24.2553 12.9766C25.3347 12.3535 25.7045 10.9734 25.0812 9.89408L22.8246 5.98558C22.2013 4.906 20.8213 4.53636 19.742 5.15965C18.6626 5.78278 18.2928 7.16294 18.9161 8.24222L21.1727 12.1507Z" fill="#C1EF00"/>
<path d="M24.3305 54.8919C23.2512 54.2683 21.8709 54.6385 21.2479 55.7178L18.9161 59.7568C18.2928 60.8362 18.6626 62.2163 19.742 62.8393C20.8171 63.4602 22.1989 63.097 22.8246 62.0134L25.1564 57.9745C25.7797 56.8952 25.4099 55.515 24.3305 54.8919Z" fill="#C1EF00"/>
</svg>
