<svg width="60" height="60" viewBox="0 0 60 60" fill="none" xmlns="http://www.w3.org/2000/svg">
<path d="M53.2527 36.5142V19.171C53.2527 13.2987 48.4746 8.52051 42.6022 8.52051H36.2119V12.7807H42.6022C46.126 12.7807 48.9925 15.6472 48.9925 19.171V36.5142C45.3276 37.4666 42.6022 40.773 42.6022 44.7322V48.9924C42.6022 50.1698 43.5549 51.1225 44.7323 51.1225V53.2526C44.7323 54.43 45.685 55.3828 46.8624 55.3828C48.0398 55.3828 48.9925 54.43 48.9925 53.2526V51.1225H53.2527V53.2526C53.2527 54.43 54.2055 55.3828 55.3828 55.3828C56.5602 55.3828 57.5129 54.43 57.5129 53.2526V51.1225C58.6903 51.1225 59.643 50.1698 59.643 48.9924V44.7322C59.643 40.773 56.9176 37.4666 53.2527 36.5142Z" fill="#C1EF00"/>
<path d="M23.3249 15.5141C23.1481 15.1459 22.7757 14.9108 22.3659 14.9108H17.9664L21.122 10.1763C21.3404 9.84974 21.3612 9.42955 21.174 9.08216C20.9889 8.73685 20.629 8.52051 20.2358 8.52051H15.9756C15.5721 8.52051 15.2039 8.74933 15.0229 9.1092L10.7627 17.6296C10.5984 17.9604 10.615 18.3514 10.8085 18.6655C11.004 18.9796 11.3472 19.171 11.7154 19.171H16.3833L12.8928 26.15C12.6494 26.6368 12.8117 27.2296 13.2714 27.5229C13.4482 27.6373 13.6479 27.6914 13.8455 27.6914C14.1596 27.6914 14.4675 27.5521 14.6776 27.292L23.198 16.6415C23.4539 16.3212 23.5038 15.8843 23.3249 15.5141Z" fill="#C1EF00"/>
<path d="M29.8214 0H4.2602C1.90739 0 0 1.90726 0 4.2602V55.3826C0 57.7355 1.90739 59.6429 4.2602 59.6429H17.0408V51.1224H12.7806C8.07486 51.1224 4.2602 47.3077 4.2602 42.602H8.52041C12.4861 42.602 15.7895 45.3238 16.7396 48.9923H17.0408C17.0408 44.2866 20.8555 40.4719 25.5612 40.4719H29.8214C29.8214 45.1776 26.0068 48.9923 21.301 48.9923H19.1709V51.1224V59.6429H29.8214C32.1742 59.6429 34.0816 57.7355 34.0816 55.3826V4.2602C34.0816 1.90726 32.1742 0 29.8214 0ZM14.9107 36.2117C14.9107 37.3881 13.9571 38.3418 12.7806 38.3418H10.6505C9.47404 38.3418 8.52041 37.3881 8.52041 36.2117V34.0816C8.52041 32.9052 9.47404 31.9515 10.6505 31.9515H12.7806C13.9571 31.9515 14.9107 32.9052 14.9107 34.0816V36.2117ZM25.5612 36.2117C25.5612 37.3881 24.6076 38.3418 23.4311 38.3418H21.301C20.1246 38.3418 19.1709 37.3881 19.1709 36.2117V34.0816C19.1709 32.9052 20.1246 31.9515 21.301 31.9515H23.4311C24.6076 31.9515 25.5612 32.9052 25.5612 34.0816V36.2117ZM29.8214 29.8214H4.2602V6.39031H29.8214V29.8214Z" fill="#C1EF00"/>
</svg>
