<svg width="58" height="51" viewBox="0 0 58 51" fill="none" xmlns="http://www.w3.org/2000/svg">
<path d="M13.1942 25.492C13.1942 18.0021 18.475 11.7234 25.5087 10.1807C20.0067 10.8812 14.2534 13.2666 8.67884 17.1859C3.65395 20.7191 0.551032 24.2213 0.421457 24.3687C-0.140486 25.0076 -0.140486 25.9643 0.421457 26.6032C0.551032 26.7506 3.65395 30.2528 8.67895 33.7858C14.208 37.6734 19.913 40.0518 25.3742 40.774C18.4077 39.1813 13.1942 32.9342 13.1942 25.492Z" fill="#C1EF00"/>
<path d="M16.5771 25.4933C16.5771 32.2712 22.0914 37.7854 28.8693 37.7854C35.6472 37.7854 41.1614 32.2712 41.1614 25.4933C41.1614 18.7154 35.6472 13.2012 28.8693 13.2012C22.0914 13.2012 16.5771 18.7154 16.5771 25.4933ZM31.1247 20.4125H35.6356C36.5698 20.4125 37.3272 21.1699 37.3272 22.1041V26.6149C37.3272 27.5491 36.5698 28.3065 35.6356 28.3065C34.7014 28.3065 33.944 27.5491 33.944 26.6149V26.1879L30.0653 30.0665C29.4047 30.7271 28.3338 30.7272 27.6731 30.0665L25.4832 27.8767L23.3251 30.0349C22.6646 30.6954 21.5935 30.6956 20.9328 30.0349C20.2722 29.3744 20.2722 28.3034 20.9328 27.6426L24.287 24.2883C24.9474 23.6277 26.0193 23.6282 26.6793 24.2883L28.8693 26.4781L31.5518 23.7956H31.1247C30.1905 23.7956 29.4331 23.0383 29.4331 22.1041C29.4331 21.1699 30.1905 20.4125 31.1247 20.4125Z" fill="#C1EF00"/>
<path d="M57.3178 24.3686C57.1882 24.2212 54.0853 20.719 49.0603 17.1859C43.4859 13.2664 37.7326 10.8812 32.2305 10.1807C39.2642 11.7233 44.5449 18.002 44.5449 25.4919C44.5449 32.9341 39.3315 39.1812 32.3651 40.7739C37.8263 40.0518 43.5313 37.6733 49.0603 33.7857C54.0853 30.2527 57.1881 26.7504 57.3178 26.6031C57.8798 25.9642 57.8798 25.0075 57.3178 24.3686Z" fill="#C1EF00"/>
<path d="M42.1763 41.7661C41.7091 40.9569 40.6747 40.6796 39.8656 41.147C39.0565 41.6141 38.7793 42.6485 39.2465 43.4576L40.9945 46.4852C41.463 47.2969 42.4985 47.5702 43.3052 47.1044C44.1143 46.6373 44.3915 45.6028 43.9243 44.7937L42.1763 41.7661Z" fill="#C1EF00"/>
<path d="M28.8693 6.76631C29.8035 6.76631 30.5609 6.00894 30.5609 5.07473V1.69158C30.5609 0.757376 29.8035 0 28.8693 0C27.9351 0 27.1777 0.757376 27.1777 1.69158V5.07473C27.1777 6.00894 27.9351 6.76631 28.8693 6.76631Z" fill="#C1EF00"/>
<path d="M39.9213 9.72731C40.7268 10.1925 41.7629 9.92094 42.232 9.10819L43.9236 6.17838C44.3908 5.36935 44.1136 4.33467 43.3044 3.86768C42.4954 3.40035 41.4607 3.67755 40.9938 4.4868L39.3022 7.41661C38.835 8.22564 39.1122 9.26021 39.9213 9.72731Z" fill="#C1EF00"/>
<path d="M28.8693 44.0938C27.9351 44.0938 27.1777 44.8511 27.1777 45.7853V49.2813C27.1777 50.2155 27.9351 50.9728 28.8693 50.9728C29.8035 50.9728 30.5609 50.2155 30.5609 49.2813V45.7853C30.5609 44.8511 29.8035 44.0938 28.8693 44.0938Z" fill="#C1EF00"/>
<path d="M15.5074 9.10814C15.976 9.91976 17.0115 10.1931 17.8181 9.72726C18.6273 9.26016 18.9045 8.22559 18.4372 7.41656L16.7457 4.48675C16.2784 3.6775 15.244 3.40042 14.435 3.86763C13.6258 4.33473 13.3486 5.3693 13.8158 6.17833L15.5074 9.10814Z" fill="#C1EF00"/>
<path d="M17.8745 41.147C17.0655 40.6795 16.0308 40.9571 15.5638 41.7661L13.8158 44.7937C13.3486 45.6028 13.6258 46.6374 14.435 47.1044C15.2408 47.5698 16.2766 47.2976 16.7457 46.4853L18.4936 43.4577C18.9608 42.6486 18.6836 41.6141 17.8745 41.147Z" fill="#C1EF00"/>
</svg>
