<svg width="69" height="69" viewBox="0 0 69 69" fill="none" xmlns="http://www.w3.org/2000/svg">
<path d="M56.0473 30.0878C56.0473 36.2383 53.6109 41.9099 49.138 46.0635C45.583 49.4584 44.8243 52.0945 44.0655 56.0484C44.0655 56.0484 42.1486 58.4978 40.9499 60.1755H27.6503L24.0958 56.0484C22.9772 52.0544 22.2585 49.1786 18.8636 45.9434C13.592 40.8714 11.1956 33.4826 12.4733 26.1734C13.9513 17.4668 20.741 10.3978 29.368 8.60057C30.9256 8.28075 32.5231 8.12109 34.0807 8.12109C39.1131 8.12109 44.0255 9.79824 47.9393 13.0334C53.0919 17.2271 56.0473 23.4577 56.0473 30.0878Z" fill="#C1EF00"/>
<path d="M56.0477 30.0878C56.0477 36.2383 53.6113 41.9099 49.1384 46.0635C45.5834 49.4584 44.8247 52.0945 44.0659 56.0484C44.0659 56.0484 42.149 58.4978 40.9503 60.1755H34.0811V8.12109C39.1135 8.12109 44.0259 9.79824 47.9397 13.0334C53.0923 17.2271 56.0477 23.4577 56.0477 30.0878Z" fill="#C1EF00"/>
<path d="M5.99091 32.0848H1.99697C0.893436 32.0848 0 31.1918 0 30.0878C0 28.9843 0.893436 28.0908 1.99697 28.0908H5.99091C7.09445 28.0908 7.98788 28.9843 7.98788 30.0878C7.98788 31.1918 7.09445 32.0848 5.99091 32.0848Z" fill="#C1EF00"/>
<path d="M66.1657 32.0848H62.1718C61.0682 32.0848 60.1748 31.1918 60.1748 30.0878C60.1748 28.9843 61.0682 28.0908 62.1718 28.0908H66.1657C67.2693 28.0908 68.1627 28.9843 68.1627 30.0878C68.1627 31.1918 67.2693 32.0848 66.1657 32.0848Z" fill="#C1EF00"/>
<path d="M9.86755 18.1062C9.52796 18.1062 9.18473 18.0204 8.87114 17.8389L5.41129 15.8419C4.45597 15.2902 4.12834 14.0696 4.68011 13.1138C5.23239 12.1579 6.45502 11.8303 7.40826 12.3826L10.8681 14.3796C11.8234 14.9313 12.1511 16.1519 11.5993 17.1077C11.229 17.7474 10.5582 18.1062 9.86755 18.1062Z" fill="#C1EF00"/>
<path d="M61.7504 48.0604C61.4108 48.0604 61.0675 47.9746 60.754 47.7931L57.2941 45.7961C56.3388 45.2443 56.0112 44.0238 56.5629 43.0679C57.1131 42.1121 58.3358 41.7865 59.2911 42.3368L62.7509 44.3337C63.7062 44.8855 64.0339 46.106 63.4821 47.0619C63.1118 47.7015 62.441 48.0604 61.7504 48.0604Z" fill="#C1EF00"/>
<path d="M20.1045 7.45335C19.4139 7.45335 18.743 7.09451 18.3727 6.45486L16.3758 2.995C15.8235 2.03968 16.1511 0.818618 17.1069 0.266851C18.0586 -0.283356 19.2813 0.0447924 19.8351 0.998034L21.8321 4.45789C22.3844 5.41321 22.0567 6.63428 21.1009 7.18604C20.7868 7.36754 20.4436 7.45335 20.1045 7.45335Z" fill="#C1EF00"/>
<path d="M6.41185 48.0604C5.72124 48.0604 5.05038 47.7015 4.68011 47.0619C4.12834 46.106 4.45597 44.8855 5.41129 44.3337L8.87114 42.3368C9.82075 41.7865 11.0434 42.1121 11.5993 43.0679C12.1511 44.0238 11.8234 45.2443 10.8681 45.7961L7.40826 47.7931C7.09467 47.9746 6.75144 48.0604 6.41185 48.0604Z" fill="#C1EF00"/>
<path d="M58.2947 18.1062C57.604 18.1062 56.9332 17.7474 56.5629 17.1077C56.0112 16.1519 56.3388 14.9313 57.2941 14.3796L60.754 12.3826C61.7036 11.8303 62.9303 12.1579 63.4821 13.1138C64.0339 14.0696 63.7062 15.2902 62.7509 15.8419L59.2911 17.8389C58.9775 18.0204 58.6343 18.1062 58.2947 18.1062Z" fill="#C1EF00"/>
<path d="M48.0575 7.4746C47.7184 7.4746 47.3752 7.38879 47.061 7.20729C46.1052 6.65553 45.7776 5.43446 46.3299 4.47914L48.3268 1.01929C48.8807 0.0660457 50.0976 -0.261582 51.055 0.288104C52.0108 0.840392 52.3385 2.06094 51.7862 3.01626L49.7892 6.47611C49.4189 7.11577 48.7481 7.4746 48.0575 7.4746Z" fill="#C1EF00"/>
<path d="M47.461 28.6899C46.7023 27.8911 45.424 27.8911 44.6653 28.6899L42.0692 31.2459L39.4732 28.6899C38.7144 27.8911 37.4361 27.8911 36.6774 28.6899L34.0813 31.2459L31.4853 28.6899C30.7265 27.8911 29.4483 27.8911 28.6895 28.6899L26.0935 31.2459L23.4974 28.6899C22.7386 27.8911 21.4604 27.8911 20.7016 28.6899C19.9028 29.4487 19.9028 30.7269 20.7016 31.4857L24.5359 35.36L32.0844 46.6626V58.0454C32.0844 59.1635 32.9627 60.1755 34.0813 60.1755C35.1999 60.1755 36.0783 59.1635 36.0783 58.0454V46.6626L43.6267 35.36L47.461 31.4857C48.2598 30.7269 48.2598 29.4487 47.461 28.6899ZM34.0813 42.469L28.6495 34.3215L30.0874 32.9236L32.6835 35.4796C33.0428 35.879 33.5623 36.0787 34.0813 36.0787C34.6003 36.0787 35.1199 35.879 35.4792 35.4796L38.0753 32.9236L39.5132 34.3215L34.0813 42.469Z" fill="#212035"/>
<path d="M47.4608 31.4857L43.6265 35.36L36.078 46.6626V58.0454C36.078 59.1635 35.1997 60.1755 34.0811 60.1755V42.469L39.5129 34.3215L38.075 32.9236L35.4789 35.4796C35.1196 35.879 34.6001 36.0787 34.0811 36.0787V31.2459L36.6771 28.6899C37.4359 27.8911 38.7141 27.8911 39.4729 28.6899L42.0689 31.2459L44.6655 28.6899C45.4243 27.8911 46.702 27.8911 47.4608 28.6899C48.2595 29.4487 48.2595 30.7269 47.4608 31.4857Z" fill="#212035"/>
<path d="M24.0967 56.0488V62.1729C24.0967 65.4876 26.7723 68.1638 30.0876 68.1638H38.0755C41.3908 68.1638 44.0664 65.4876 44.0664 62.1729V56.0488H24.0967Z" fill="#C1EF00"/>
<path d="M44.0659 56.0488V62.1729C44.0659 65.4876 41.3903 68.1638 38.075 68.1638H34.0811V56.0488H44.0659Z" fill="#C1EF00"/>
</svg>
