<svg width="32" height="32" viewBox="0 0 32 32" fill="none" xmlns="http://www.w3.org/2000/svg">
<path d="M16 19.2812C17.8122 19.2812 19.2812 17.8122 19.2812 16C19.2812 14.1878 17.8122 12.7188 16 12.7188C14.1878 12.7188 12.7188 14.1878 12.7188 16C12.7188 17.8122 14.1878 19.2812 16 19.2812Z" fill="#262626"/>
<path d="M16 0.375C7.37056 0.375 0.375 7.37056 0.375 16C0.375 24.6294 7.37056 31.625 16 31.625C24.6294 31.625 31.625 24.6294 31.625 16C31.625 7.37056 24.6294 0.375 16 0.375ZM25.6536 19.9713C25.5786 21.4568 25.1612 22.9216 24.0786 23.9927C22.9856 25.0739 21.5137 25.4768 20.0139 25.5511H11.9861C10.4861 25.4768 9.0145 25.0742 7.92144 23.9927C6.83881 22.9216 6.42144 21.4568 6.34644 19.9713V12.0288C6.42144 10.5433 6.83887 9.07837 7.92144 8.00725C9.0145 6.926 10.4863 6.52312 11.9861 6.44894H20.0139C21.5139 6.52312 22.9855 6.92581 24.0786 8.00725C25.1612 9.07837 25.5786 10.5433 25.6536 12.0288L25.6536 19.9713Z" fill="#262626"/>
<path d="M19.9127 8.25897C17.9573 8.20534 14.0435 8.20534 12.0882 8.25897C11.0706 8.28691 9.91703 8.54022 9.19203 9.31459C8.43866 10.1195 8.15397 11.092 8.12509 12.18C8.07434 14.0895 8.12509 19.8207 8.12509 19.8207C8.15816 20.9085 8.43866 21.8812 9.19203 22.6861C9.91703 23.4607 11.0706 23.7138 12.0882 23.7417C14.0435 23.7953 17.9573 23.7953 19.9127 23.7417C20.9302 23.7138 22.0838 23.4605 22.8088 22.6861C23.5622 21.8812 23.8468 20.9087 23.8757 19.8207V12.18C23.8468 11.092 23.5622 10.1195 22.8088 9.31459C22.0835 8.53997 20.93 8.28691 19.9127 8.25897ZM16.0002 21.0863C14.9943 21.0863 14.0109 20.788 13.1746 20.2291C12.3382 19.6703 11.6863 18.876 11.3014 17.9466C10.9164 17.0173 10.8157 15.9947 11.0119 15.0081C11.2082 14.0216 11.6926 13.1153 12.4039 12.404C13.1151 11.6928 14.0214 11.2084 15.0079 11.0121C15.9945 10.8159 17.0171 10.9166 17.9465 11.3016C18.8758 11.6865 19.6701 12.3384 20.229 13.1747C20.7878 14.0111 21.0861 14.9944 21.0861 16.0003C21.0861 17.3492 20.5503 18.6428 19.5965 19.5966C18.6427 20.5504 17.349 21.0863 16.0002 21.0863ZM21.1077 11.9642C20.9066 11.9642 20.7099 11.9045 20.5427 11.7927C20.3754 11.6809 20.2451 11.522 20.1681 11.3361C20.0912 11.1502 20.0711 10.9457 20.1104 10.7484C20.1496 10.5511 20.2465 10.3699 20.3888 10.2277C20.5311 10.0855 20.7123 9.9886 20.9096 9.94937C21.1069 9.91014 21.3114 9.9303 21.4973 10.0073C21.6831 10.0843 21.842 10.2147 21.9537 10.3819C22.0655 10.5492 22.1252 10.7459 22.1252 10.947C22.1252 11.0806 22.0988 11.2129 22.0477 11.3364C21.9966 11.4598 21.9216 11.5719 21.8271 11.6664C21.7327 11.7608 21.6205 11.8358 21.4971 11.8869C21.3736 11.938 21.2413 11.9643 21.1077 11.9642Z" fill="#262626"/>
</svg>
