<svg width="32" height="32" viewBox="0 0 32 32" fill="none" xmlns="http://www.w3.org/2000/svg">
<path d="M16 0C12.8355 0 9.74207 0.938384 7.11088 2.69649C4.4797 4.45459 2.42894 6.95345 1.21793 9.87707C0.00693251 12.8007 -0.309921 16.0177 0.307443 19.1214C0.924806 22.2251 2.44866 25.0761 4.6863 27.3137C6.92394 29.5513 9.77487 31.0752 12.8786 31.6926C15.9823 32.3099 19.1993 31.9931 22.1229 30.7821C25.0466 29.5711 27.5454 27.5203 29.3035 24.8891C31.0616 22.2579 32 19.1645 32 16C32 11.7565 30.3143 7.68687 27.3137 4.68629C24.3131 1.68571 20.2435 0 16 0ZM24.2358 11.7895C24.2358 11.9705 24.2505 12.1516 24.2505 12.3389C24.2505 17.9537 19.9747 24.4316 12.1537 24.4316C9.8395 24.4408 7.57237 23.7782 5.62738 22.5242C5.96464 22.5664 6.30434 22.5861 6.64422 22.5832C8.55174 22.5833 10.4045 21.9452 11.9074 20.7705C11.0218 20.7444 10.1659 20.4448 9.4573 19.913C8.74867 19.3811 8.22198 18.6431 7.94948 17.8C8.21493 17.8526 8.48524 17.8766 8.7558 17.8716C9.13154 17.8748 9.50605 17.8281 9.86948 17.7326C8.90844 17.5337 8.04525 17.0098 7.42523 16.2491C6.80521 15.4883 6.4662 14.5372 6.46527 13.5558V13.5095C7.05393 13.8357 7.71248 14.0155 8.38527 14.0337C7.48389 13.4314 6.84656 12.5075 6.60357 11.451C6.36057 10.3945 6.53024 9.28507 7.0779 8.34947C8.14298 9.66544 9.47375 10.7419 10.9832 11.5084C12.4927 12.2749 14.147 12.7143 15.8379 12.7979C15.7692 12.4798 15.736 12.155 15.739 11.8295C15.7382 10.9768 15.9941 10.1436 16.4733 9.43826C16.9525 8.73295 17.6329 8.18816 18.4259 7.87477C19.219 7.56137 20.088 7.49386 20.9199 7.68103C21.7518 7.86819 22.5081 8.30137 23.0905 8.92421C24.0409 8.73731 24.9523 8.38913 25.7853 7.89474C25.4709 8.88045 24.8057 9.71649 23.9158 10.2442C24.76 10.1393 25.5846 9.91311 26.3642 9.57263C25.7961 10.4354 25.0747 11.1868 24.2358 11.7895Z" fill="#262626"/>
</svg>
