<svg width="25" height="24" viewBox="0 0 25 24" fill="none" xmlns="http://www.w3.org/2000/svg">
<g clip-path="url(#clip0_730_8901)">
<path d="M12.5 9.68604C14.7523 9.68604 16.5781 7.8602 16.5781 5.60791C16.5781 3.35562 14.7523 1.52979 12.5 1.52979C10.2477 1.52979 8.42188 3.35562 8.42188 5.60791C8.42188 7.8602 10.2477 9.68604 12.5 9.68604Z" fill="white"/>
<path d="M20.75 9.68604C22.1739 9.68604 23.3281 8.53177 23.3281 7.10791C23.3281 5.68405 22.1739 4.52979 20.75 4.52979C19.3261 4.52979 18.1719 5.68405 18.1719 7.10791C18.1719 8.53177 19.3261 9.68604 20.75 9.68604Z" fill="white"/>
<path d="M4.25 9.68604C5.67386 9.68604 6.82812 8.53177 6.82812 7.10791C6.82812 5.68405 5.67386 4.52979 4.25 4.52979C2.82614 4.52979 1.67188 5.68405 1.67188 7.10791C1.67188 8.53177 2.82614 9.68604 4.25 9.68604Z" fill="white"/>
<path d="M6.79016 12.0011C5.77531 11.1697 4.85623 11.2797 3.68281 11.2797C1.92781 11.2797 0.5 12.6991 0.5 14.4433V19.5625C0.5 20.32 1.11828 20.936 1.87859 20.936C5.16106 20.936 4.76562 20.9954 4.76562 20.7944C4.76562 17.1669 4.33597 14.5067 6.79016 12.0011Z" fill="white"/>
<path d="M13.6153 11.2985C11.5657 11.1275 9.78421 11.3004 8.2476 12.5688C5.67618 14.6285 6.17104 17.4017 6.17104 20.7944C6.17104 21.692 6.90135 22.436 7.8126 22.436C17.7071 22.436 18.1009 22.7551 18.6876 21.4558C18.88 21.0164 18.8273 21.1561 18.8273 16.9525C18.8273 13.6138 15.9364 11.2985 13.6153 11.2985Z" fill="white"/>
<path d="M21.3183 11.2801C20.1384 11.2801 19.2244 11.1712 18.2109 12.0015C20.6468 14.4885 20.2355 16.9672 20.2355 20.7948C20.2355 20.997 19.9072 20.9363 23.0733 20.9363C23.8608 20.9363 24.5011 20.2984 24.5011 19.5142V14.4437C24.5011 12.6995 23.0733 11.2801 21.3183 11.2801Z" fill="white"/>
</g>
<defs>
<clipPath id="clip0_730_8901">
<rect width="24" height="24" fill="white" transform="translate(0.5)"/>
</clipPath>
</defs>
</svg>
