<svg width="80" height="80" viewBox="0 0 80 80" fill="none" xmlns="http://www.w3.org/2000/svg">
<g clip-path="url(#clip0_730_8879)">
<path d="M40 32.2861C47.5076 32.2861 53.5938 26.2 53.5938 18.6924C53.5938 11.1848 47.5076 5.09863 40 5.09863C32.4924 5.09863 26.4062 11.1848 26.4062 18.6924C26.4062 26.2 32.4924 32.2861 40 32.2861Z" fill="white"/>
<path d="M67.5 32.2861C72.2462 32.2861 76.0938 28.4386 76.0938 23.6924C76.0938 18.9462 72.2462 15.0986 67.5 15.0986C62.7538 15.0986 58.9062 18.9462 58.9062 23.6924C58.9062 28.4386 62.7538 32.2861 67.5 32.2861Z" fill="white"/>
<path d="M12.5 32.2861C17.2462 32.2861 21.0938 28.4386 21.0938 23.6924C21.0938 18.9462 17.2462 15.0986 12.5 15.0986C7.7538 15.0986 3.90625 18.9462 3.90625 23.6924C3.90625 28.4386 7.7538 32.2861 12.5 32.2861Z" fill="white"/>
<path d="M20.9672 40.0033C17.5844 37.2317 14.5208 37.5986 10.6094 37.5986C4.75938 37.5986 0 42.3298 0 48.1439V65.208C0 67.733 2.06094 69.7861 4.59531 69.7861C15.5369 69.7861 14.2188 69.9841 14.2188 69.3142C14.2188 57.2227 12.7866 48.3553 20.9672 40.0033Z" fill="white"/>
<path d="M43.7208 37.6609C36.8889 37.0911 30.9506 37.6675 25.8286 41.8953C17.2572 48.7609 18.9067 58.0052 18.9067 69.3141C18.9067 72.3061 21.3411 74.7859 24.3786 74.7859C57.3601 74.7859 58.6728 75.8498 60.6286 71.5187C61.27 70.0541 61.0942 70.5195 61.0942 56.5078C61.0942 45.3787 51.4578 37.6609 43.7208 37.6609Z" fill="white"/>
<path d="M69.3891 37.5987C65.4563 37.5987 62.4095 37.2356 59.0312 40.0034C67.1508 48.2934 65.7797 56.5557 65.7797 69.3143C65.7797 69.9884 64.6855 69.7862 75.2391 69.7862C77.8641 69.7862 79.9984 67.6596 79.9984 65.0456V48.144C79.9984 42.3299 75.2391 37.5987 69.3891 37.5987Z" fill="white"/>
</g>
<defs>
<clipPath id="clip0_730_8879">
<rect width="80" height="80" fill="white"/>
</clipPath>
</defs>
</svg>
