<svg width="80" height="80" viewBox="0 0 80 80" fill="none" xmlns="http://www.w3.org/2000/svg">
<path d="M64.9987 24L54.332 13.3333C53.332 12.3333 51.6654 12.3333 50.6654 13.3333C49.6654 14.3333 49.6654 16 50.6654 17L55.9987 22.3333C52.6654 23.6667 49.9987 27.3333 50.6654 31.3333C51.332 35 54.332 38 57.9987 38.3333C59.6654 38.6667 60.9987 38.3333 62.332 37.6667V61.6667C62.332 63.3333 60.6654 65 58.9987 65C57.332 65 55.6654 63.3333 55.6654 61.6667V46.6667C55.6654 43 52.6654 40 48.9987 40H45.6654V16.6667C45.6654 13 42.6654 10 38.9987 10H18.9987C15.332 10 12.332 13 12.332 16.6667V66.6667C12.332 68.3333 13.6654 70 15.6654 70H42.332C44.332 70 45.6654 68.3333 45.6654 66.6667V45H50.6654V61.3333C50.6654 65.6667 53.6654 69.6667 57.9987 70C62.9987 70.3333 67.332 66.6667 67.332 61.6667V30C67.6654 27.6667 66.6654 25.6667 64.9987 24ZM59.332 33.3333C57.6654 33.3333 55.9987 32 55.9987 30C55.9987 28 57.6654 26.6667 59.332 26.6667C60.9987 26.6667 62.6654 28 62.6654 30C62.6654 32 60.9987 33.3333 59.332 33.3333ZM25.9987 53.6667V45H21.9987C20.6654 45 19.9987 43.6667 20.6654 42.6667L29.6654 26C29.9987 24.3333 32.332 25 32.332 26.6667V36.6667H35.9987C37.332 36.6667 37.9987 38 37.332 39.3333L28.6654 54.6667C27.9987 56 25.6654 55.3333 25.9987 53.6667Z" fill="white"/>
</svg>
