<svg width="24" height="24" viewBox="0 0 24 24" fill="none" xmlns="http://www.w3.org/2000/svg">
<path d="M19.4992 7.2L16.2992 4C15.9992 3.7 15.4992 3.7 15.1992 4C14.8992 4.3 14.8992 4.8 15.1992 5.1L16.7992 6.7C15.7992 7.1 14.9992 8.2 15.1992 9.4C15.3992 10.5 16.2992 11.4 17.3992 11.5C17.8992 11.6 18.2992 11.5 18.6992 11.3V18.5C18.6992 19 18.1992 19.5 17.6992 19.5C17.1992 19.5 16.6992 19 16.6992 18.5V14C16.6992 12.9 15.7992 12 14.6992 12H13.6992V5C13.6992 3.9 12.7992 3 11.6992 3H5.69922C4.59922 3 3.69922 3.9 3.69922 5V20C3.69922 20.5 4.09922 21 4.69922 21H12.6992C13.2992 21 13.6992 20.5 13.6992 20V13.5H15.1992V18.4C15.1992 19.7 16.0992 20.9 17.3992 21C18.8992 21.1 20.1992 20 20.1992 18.5V9C20.2992 8.3 19.9992 7.7 19.4992 7.2ZM17.7992 10C17.2992 10 16.7992 9.6 16.7992 9C16.7992 8.4 17.2992 8 17.7992 8C18.2992 8 18.7992 8.4 18.7992 9C18.7992 9.6 18.2992 10 17.7992 10ZM7.79922 16.1V13.5H6.59922C6.19922 13.5 5.99922 13.1 6.19922 12.8L8.89922 7.8C8.99922 7.3 9.69922 7.5 9.69922 8V11H10.7992C11.1992 11 11.3992 11.4 11.1992 11.8L8.59922 16.4C8.39922 16.8 7.69922 16.6 7.79922 16.1Z" fill="white"/>
</svg>
