<svg width="40" height="40" viewBox="0 0 40 40" fill="none" xmlns="http://www.w3.org/2000/svg">
<path d="M20 0C16.0444 0 12.1776 1.17298 8.8886 3.37061C5.59962 5.56824 3.03617 8.69181 1.52242 12.3463C0.00866564 16.0009 -0.387401 20.0222 0.384303 23.9018C1.15601 27.7814 3.06082 31.3451 5.85787 34.1421C8.65492 36.9392 12.2186 38.844 16.0982 39.6157C19.9778 40.3874 23.9992 39.9913 27.6537 38.4776C31.3082 36.9638 34.4318 34.4004 36.6294 31.1114C38.827 27.8224 40 23.9556 40 20C40 14.6957 37.8929 9.60859 34.1421 5.85786C30.3914 2.10714 25.3043 0 20 0ZM25.6895 13.0158C25.6895 13.3921 25.5316 13.5421 25.1632 13.5421C24.4553 13.5421 23.7474 13.5421 23.0421 13.5711C22.3369 13.6 21.9526 13.9211 21.9526 14.6579C21.9368 15.4474 21.9526 16.2211 21.9526 17.0263H24.9816C25.4132 17.0263 25.5605 17.1737 25.5605 17.6079C25.5605 18.6605 25.5605 19.7184 25.5605 20.7816C25.5605 21.2105 25.4237 21.3447 24.9895 21.3474H21.9263V29.9105C21.9263 30.3684 21.7842 30.5132 21.3316 30.5132H18.0369C17.6395 30.5132 17.4842 30.3579 17.4842 29.9605V21.3605H14.8684C14.4579 21.3605 14.3105 21.2105 14.3105 20.7974C14.3105 19.7325 14.3105 18.6684 14.3105 17.6053C14.3105 17.1947 14.4658 17.0395 14.8711 17.0395H17.4842V14.7368C17.4532 13.7025 17.7014 12.679 18.2026 11.7737C18.7237 10.8598 19.5587 10.1659 20.5526 9.82105C21.1977 9.58636 21.8794 9.46872 22.5658 9.47368H25.1526C25.5237 9.47368 25.679 9.63684 25.679 10C25.6921 11.0132 25.6921 12.0158 25.6895 13.0158Z" fill="#C1EF00"/>
</svg>
