<svg width="40" height="40" viewBox="0 0 40 40" fill="none" xmlns="http://www.w3.org/2000/svg">
<g clip-path="url(#clip0_523_4254)">
<path d="M20 24.1016C22.2652 24.1016 24.1016 22.2652 24.1016 20C24.1016 17.7348 22.2652 15.8984 20 15.8984C17.7348 15.8984 15.8984 17.7348 15.8984 20C15.8984 22.2652 17.7348 24.1016 20 24.1016Z" fill="#C1EF00"/>
<path d="M20 0.46875C9.2132 0.46875 0.46875 9.2132 0.46875 20C0.46875 30.7868 9.2132 39.5312 20 39.5312C30.7868 39.5312 39.5312 30.7868 39.5312 20C39.5312 9.2132 30.7868 0.46875 20 0.46875ZM32.067 24.9641C31.9733 26.8209 31.4515 28.652 30.0983 29.9909C28.732 31.3424 26.8922 31.846 25.0174 31.9388H14.9827C13.1077 31.846 11.2681 31.3427 9.9018 29.9909C8.54852 28.652 8.0268 26.8209 7.93305 24.9641V15.0359C8.0268 13.1791 8.54859 11.348 9.9018 10.0091C11.2681 8.6575 13.1079 8.15391 14.9827 8.06117H25.0173C26.8923 8.15391 28.7319 8.65727 30.0982 10.0091C31.4515 11.348 31.9732 13.1791 32.067 15.0359L32.067 24.9641Z" fill="#C1EF00"/>
<path d="M24.8896 10.3237C22.4454 10.2567 17.5532 10.2567 15.109 10.3237C13.837 10.3586 12.3951 10.6753 11.4888 11.6432C10.5471 12.6494 10.1912 13.865 10.1551 15.225C10.0917 17.6118 10.1551 24.7759 10.1551 24.7759C10.1965 26.1357 10.5471 27.3514 11.4888 28.3576C12.3951 29.3259 13.837 29.6422 15.109 29.6771C17.5532 29.7442 22.4454 29.7442 24.8896 29.6771C26.1616 29.6422 27.6035 29.3256 28.5098 28.3576C29.4515 27.3514 29.8073 26.1358 29.8434 24.7759V15.225C29.8073 13.865 29.4515 12.6494 28.5098 11.6432C27.6032 10.675 26.1612 10.3586 24.8896 10.3237ZM19.999 26.3579C18.7416 26.3579 17.5125 25.985 16.467 25.2864C15.4215 24.5879 14.6067 23.595 14.1255 22.4333C13.6443 21.2716 13.5184 19.9934 13.7637 18.7602C14.009 17.5269 14.6145 16.3942 15.5036 15.5051C16.3927 14.616 17.5255 14.0105 18.7587 13.7652C19.9919 13.5199 21.2702 13.6458 22.4319 14.1269C23.5935 14.6081 24.5864 15.423 25.285 16.4684C25.9835 17.5139 26.3564 18.7431 26.3564 20.0004C26.3564 21.6865 25.6866 23.3036 24.4944 24.4958C23.3021 25.6881 21.6851 26.3579 19.999 26.3579ZM26.3834 14.9553C26.132 14.9552 25.8862 14.8806 25.6771 14.7408C25.4681 14.6011 25.3051 14.4025 25.209 14.1701C25.1128 13.9378 25.0876 13.6822 25.1367 13.4355C25.1858 13.1889 25.3069 12.9624 25.4848 12.7846C25.6626 12.6068 25.8892 12.4857 26.1358 12.4367C26.3824 12.3877 26.6381 12.4129 26.8704 12.5091C27.1027 12.6054 27.3013 12.7683 27.441 12.9774C27.5807 13.1865 27.6552 13.4323 27.6552 13.6838C27.6552 13.8508 27.6223 14.0162 27.5584 14.1704C27.4945 14.3247 27.4008 14.4649 27.2827 14.583C27.1646 14.701 27.0244 14.7947 26.8701 14.8586C26.7158 14.9225 26.5504 14.9553 26.3834 14.9553Z" fill="#C1EF00"/>
</g>
<defs>
<clipPath id="clip0_523_4254">
<rect width="40" height="40" fill="white"/>
</clipPath>
</defs>
</svg>
