<svg width="24" height="25" viewBox="0 0 24 25" fill="none" xmlns="http://www.w3.org/2000/svg">
<rect y="0.734375" width="24" height="24" rx="12" fill="#212035"/>
<path d="M15.1786 8.875C14.7866 8.875 14.4785 9.18987 14.4785 9.58171C14.4785 9.97354 14.7936 10.2884 15.1786 10.2884C15.5707 10.2884 15.8857 9.97354 15.8857 9.58171C15.8787 9.18987 15.5637 8.875 15.1786 8.875Z" fill="#BCDF2B"/>
<path d="M12.0492 9.77734C10.4179 9.77734 9.09473 11.0998 9.09473 12.7301C9.09473 14.3604 10.4179 15.6829 12.0492 15.6829C13.6805 15.6829 15.0037 14.3604 15.0037 12.7301C15.0037 11.1068 13.6805 9.77734 12.0492 9.77734ZM12.0492 14.6263C11.006 14.6263 10.1589 13.7797 10.1589 12.7371C10.1589 11.6945 11.006 10.8479 12.0492 10.8479C13.0924 10.8479 13.9395 11.6945 13.9395 12.7371C13.9395 13.7797 13.0924 14.6263 12.0492 14.6263Z" fill="#BCDF2B"/>
<path d="M14.3944 18.7344H9.6056C7.61727 18.7344 6 17.118 6 15.1309V10.3379C6 8.3507 7.61727 6.73438 9.6056 6.73438H14.3944C16.3827 6.73438 18 8.3507 18 10.3379V15.1239C18 17.118 16.3827 18.7344 14.3944 18.7344ZM9.6056 7.8679C8.24037 7.8679 7.12719 8.98044 7.12719 10.3449V15.1309C7.12719 16.4953 8.24037 17.6078 9.6056 17.6078H14.3944C15.7596 17.6078 16.8728 16.4953 16.8728 15.1309V10.3379C16.8728 8.97344 15.7596 7.86091 14.3944 7.86091H9.6056V7.8679Z" fill="#BCDF2B"/>
</svg>
