<svg width="24" height="25" viewBox="0 0 24 25" fill="none" xmlns="http://www.w3.org/2000/svg">
<rect y="0.734375" width="24" height="24" rx="12" fill="#212035"/>
<path d="M6.2022 10.7168H8.69011V18.7344H6.2022V10.7168ZM7.44176 6.73438C8.24176 6.73438 8.88352 7.37755 8.88352 8.17931C8.88352 8.97226 8.24176 9.62424 7.44176 9.62424C6.64176 9.62424 6 8.97226 6 8.17931C6 7.37755 6.65055 6.73438 7.44176 6.73438Z" fill="#BCDF2B"/>
<path d="M9.89258 10.7163H12.275V11.8088H12.3102C12.6442 11.1745 13.453 10.5137 14.6662 10.5137C17.1805 10.5137 17.6464 12.1701 17.6464 14.3286V18.7251H15.1585V14.8309C15.1585 13.8969 15.1409 12.7075 13.8662 12.7075C12.5739 12.7075 12.3717 13.7207 12.3717 14.7692V18.7339H9.88379V10.7163H9.89258Z" fill="#BCDF2B"/>
</svg>
