<svg width="24" height="24" viewBox="0 0 24 24" fill="none" xmlns="http://www.w3.org/2000/svg">
<path d="M22.6947 16.2826C17.5288 20.1858 17.3905 20.6368 16.1558 21.0041C14.6764 21.4408 13.2379 21.6271 12.6925 21.6271C11.8512 21.6271 11.0271 21.3696 10.3379 20.8864C9.20664 20.1334 9.05252 19.8852 8.54003 19.7876C8.4857 19.5883 8.54237 19.7575 6.21484 14.9067L7.45591 14.1365C8.92511 13.2266 10.8824 13.6018 11.9076 14.9925C12.0867 15.2329 12.3687 15.3752 12.6704 15.358L15.7339 15.228C16.5318 15.2038 17.1298 15.7773 17.2423 16.447L19.6975 14.6075C20.6146 13.913 21.8611 13.9734 22.7095 14.6541C23.2251 15.0685 23.2324 15.865 22.6947 16.2826Z" fill="white"/>
<path d="M7.40355 20.9621L4.36422 22.4075C3.95669 22.6036 3.46727 22.4323 3.2711 22.0247L0.985519 17.2764C0.789348 16.8689 0.960723 16.3795 1.36825 16.1833L4.40758 14.738C4.81511 14.5418 5.30454 14.7131 5.50071 15.1207L7.78624 19.869C7.98241 20.2765 7.81108 20.7659 7.40355 20.9621Z" fill="white"/>
<path d="M15.1942 11.4384C15.7706 11.7107 17.7156 12.6942 19.1602 14.0898L17.5169 15.3211C16.7679 14.3849 15.7448 14.5018 15.7019 14.4921L12.6213 14.6245C12.5771 14.6245 12.5305 14.5975 12.4987 14.5559C12.1725 14.1144 11.7604 13.7465 11.2943 13.4767C12.5134 12.4858 13.8673 11.7769 14.4461 11.4949C14.555 10.6239 14.5293 9.72587 14.2842 8.86801C9.67439 8.96148 7.404 6.54058 7.39453 2.16226C7.39453 1.80414 7.67658 1.51722 8.0347 1.51229C12.4823 1.4544 14.8313 3.75869 14.841 8.21561C15.0527 5.32642 16.667 3.77317 19.874 3.76389C20.1438 3.76145 20.3621 3.97726 20.3645 4.24464C20.402 7.50306 18.776 9.36334 15.3168 9.37328C15.2702 9.47382 15.2285 9.57929 15.1917 9.68476C15.258 10.2145 15.2629 10.7983 15.1942 11.4384Z" fill="white"/>
</svg>
