<svg width="25" height="24" viewBox="0 0 25 24" fill="none" xmlns="http://www.w3.org/2000/svg">
<g clip-path="url(#clip0_730_8917)">
<path d="M24.3625 8.76328C24.2451 8.62009 24.0699 8.53651 23.8862 8.53651H21.5504C20.974 7.01616 20.2231 5.52653 19.3695 4.96423C16.4167 3.02169 8.5847 3.02169 5.63195 4.96423C4.77777 5.52714 4.0299 7.01862 3.45041 8.53651H1.11462C0.929039 8.53651 0.754516 8.62009 0.638372 8.76328C0.521614 8.90585 0.47491 9.09451 0.51301 9.2758L0.858984 10.9522C0.917978 11.238 1.16993 11.442 1.4606 11.442H2.15254C1.48456 12.2127 1.16071 13.183 1.15641 14.154C1.15211 15.3535 1.60747 16.4376 2.44014 17.2045C2.44936 17.2125 2.45857 17.218 2.46718 17.226V19.5717C2.46718 20.0799 2.88013 20.4935 3.38895 20.4935H5.54345C6.05228 20.4935 6.46523 20.0799 6.46523 19.5717V18.629H18.535V19.5717C18.535 20.0799 18.9479 20.4935 19.4568 20.4935H21.6113C22.1189 20.4935 22.533 20.0799 22.533 19.5717V17.2721C23.4167 16.4628 23.8389 15.3492 23.8444 14.2375C23.8481 13.2334 23.5095 12.2274 22.8022 11.4408H23.5402C23.8321 11.4408 24.0841 11.2368 24.1418 10.9504L24.4884 9.27457C24.5241 9.09451 24.4792 8.90708 24.3625 8.76328ZM6.64406 6.50364C8.99766 4.9544 16.0026 4.9544 18.3549 6.50364C18.8121 6.80353 19.4002 8.016 19.9392 9.50072H5.06106C5.59876 8.01662 6.18686 6.80476 6.64406 6.50364ZM3.88733 14.385C3.88733 13.3833 4.69972 12.5722 5.70077 12.5722C6.70305 12.5722 7.51421 13.3833 7.51421 14.385C7.51421 15.3867 6.70305 16.1985 5.70077 16.1985C4.69972 16.1985 3.88733 15.3867 3.88733 14.385ZM19.3234 16.1985C18.3224 16.1985 17.51 15.3867 17.51 14.385C17.51 13.3833 18.3224 12.5722 19.3234 12.5722C20.3257 12.5722 21.1369 13.3833 21.1369 14.385C21.1369 15.3867 20.3245 16.1985 19.3234 16.1985Z" fill="white"/>
</g>
<defs>
<clipPath id="clip0_730_8917">
<rect width="24" height="24" fill="white" transform="translate(0.5)"/>
</clipPath>
</defs>
</svg>
