<svg width="29" height="26" viewBox="0 0 29 26" fill="none" xmlns="http://www.w3.org/2000/svg">
<path d="M22.1425 25.7348C21.9198 25.7357 21.7001 25.6854 21.5019 25.5881L14.3997 22.0281L7.29747 25.5881C7.06685 25.7043 6.80683 25.7561 6.54697 25.7377C6.28711 25.7194 6.03784 25.6316 5.82749 25.4844C5.61714 25.3372 5.45415 25.1364 5.35705 24.9049C5.25995 24.6734 5.23264 24.4204 5.27821 24.1748L6.6708 16.6681L0.933321 11.3348C0.754314 11.1638 0.627329 10.9493 0.565993 10.7144C0.504658 10.4795 0.511289 10.233 0.585173 10.0015C0.665887 9.76451 0.81436 9.55395 1.01374 9.39369C1.21313 9.23343 1.45544 9.12988 1.71317 9.09481L9.65095 7.98814L13.1464 1.14814C13.2604 0.922715 13.4384 0.732599 13.6601 0.599574C13.8818 0.46655 14.1381 0.395996 14.3997 0.395996C14.6613 0.395996 14.9176 0.46655 15.1393 0.599574C15.3609 0.732599 15.539 0.922715 15.653 1.14814L19.1902 7.97481L27.128 9.08148C27.3857 9.11655 27.628 9.22009 27.8274 9.38035C28.0268 9.54061 28.1753 9.75117 28.256 9.98814C28.3299 10.2197 28.3365 10.4662 28.2752 10.7011C28.2138 10.936 28.0869 11.1504 27.9078 11.3215L22.1704 16.6548L23.563 24.1615C23.6127 24.4114 23.5866 24.6698 23.4879 24.9061C23.3892 25.1423 23.222 25.3466 23.0059 25.4948C22.7537 25.664 22.4501 25.7484 22.1425 25.7348V25.7348Z" fill="#4B4783"/>
</svg>
