<svg width="40" height="40" viewBox="0 0 40 40" fill="none" xmlns="http://www.w3.org/2000/svg">
<g clip-path="url(#clip0_523_4250)">
<path d="M20 0C16.0444 0 12.1776 1.17298 8.8886 3.37061C5.59962 5.56824 3.03617 8.69181 1.52242 12.3463C0.00866564 16.0009 -0.387401 20.0222 0.384303 23.9018C1.15601 27.7814 3.06082 31.3451 5.85787 34.1421C8.65492 36.9392 12.2186 38.844 16.0982 39.6157C19.9778 40.3874 23.9992 39.9913 27.6537 38.4776C31.3082 36.9638 34.4318 34.4004 36.6294 31.1114C38.827 27.8224 40 23.9556 40 20C40 14.6957 37.8929 9.60859 34.1421 5.85786C30.3914 2.10714 25.3043 0 20 0ZM30.2947 14.7368C30.2947 14.9632 30.3132 15.1895 30.3132 15.4237C30.3132 22.4421 24.9684 30.5395 15.1921 30.5395C12.2994 30.551 9.46546 29.7228 7.03422 28.1553C7.4558 28.2079 7.88042 28.2326 8.30527 28.2289C10.6897 28.2292 13.0056 27.4315 14.8842 25.9632C13.7772 25.9305 12.7074 25.556 11.8216 24.8912C10.9358 24.2264 10.2775 23.3038 9.93685 22.25C10.2687 22.3157 10.6066 22.3457 10.9447 22.3395C11.4144 22.3436 11.8826 22.2851 12.3369 22.1658C11.1355 21.9172 10.0566 21.2623 9.28154 20.3113C8.50651 19.3604 8.08275 18.1715 8.08159 16.9447V16.8868C8.81742 17.2947 9.6406 17.5194 10.4816 17.5421C9.35486 16.7892 8.55821 15.6344 8.25446 14.3138C7.95071 12.9931 8.1628 11.6063 8.84738 10.4368C10.1787 12.0818 11.8422 13.4273 13.7291 14.3855C15.6159 15.3437 17.6837 15.8929 19.7974 15.9974C19.7114 15.5997 19.67 15.1937 19.6737 14.7868C19.6728 13.721 19.9926 12.6795 20.5917 11.7978C21.1907 10.9162 22.0412 10.2352 23.0324 9.84346C24.0237 9.45171 25.11 9.36733 26.1499 9.60128C27.1897 9.83524 28.1352 10.3767 28.8632 11.1553C30.0512 10.9216 31.1904 10.4864 32.2316 9.86842C31.8387 11.1006 31.0071 12.1456 29.8947 12.8053C30.95 12.6741 31.9808 12.3914 32.9553 11.9658C32.2452 13.0443 31.3434 13.9834 30.2947 14.7368Z" fill="#C1EF00"/>
</g>
<defs>
<clipPath id="clip0_523_4250">
<rect width="40" height="40" fill="white"/>
</clipPath>
</defs>
</svg>
